<svg id="Capa_1" enable-background="new 0 0 512 512" height="512" viewBox="0 0 512 512" width="512" xmlns="http://www.w3.org/2000/svg"><g><path d="m405.68 180.66v-59.139c0-4.377-3.548-7.925-7.925-7.925h-179.636c-4.377 0-7.925 3.548-7.925 7.925v59.139z" fill="#dbedff"/><path d="m262.899 113.596h-44.78c-4.377 0-7.925 3.548-7.925 7.925v59.139h46.195v-56.129c-.001-4.702 2.639-8.815 6.51-10.935z" fill="#b5dcff"/><path d="m445.522 7.425c-4.065-7.081-13.101-9.524-20.178-5.46l-60.874 34.945c-10.794 6.197-17.5 17.778-17.5 30.225v113.508h29.562v-113.508c0-1.889 1.017-3.646 2.655-4.586l60.874-34.946c7.08-4.064 9.525-13.098 5.461-20.178z" fill="#b5dcff"/><g><path d="m375.039 30.843-10.569 6.067c-10.794 6.197-17.5 17.778-17.5 30.225v113.508h15.195v-122.779c0-10.551 4.831-20.467 12.874-27.021z" fill="#8bcaff"/></g><path d="m220.764 476.78 1.53 29.785c4.756 3.416 10.584 5.435 16.887 5.435h137.513c16.009 0 28.987-12.978 28.987-28.987v-6.233z" fill="#ff9b00"/><path d="m220.764 476.78 1.53 29.785c4.756 3.416 10.584 5.435 16.887 5.435h23.718c-3.87-2.119-6.511-6.233-6.511-10.935v-24.285z" fill="#fc8900"/><path d="m210.193 178.583v92.36c55.74 11.133 97.744 60.332 97.744 119.346 0 34.906-14.699 66.375-38.238 88.569h135.981v-300.275z" fill="#ffb640"/><path d="m405.68 178.583h-195.487v92.359l10.677 207.916h184.81z" fill="#ffb640"/><path d="m210.193 178.583v92.359l10.677 207.916h35.518v-300.275z" fill="#ff9b00"/><circle cx="186.225" cy="390.289" fill="#ffd086" r="121.711"/><path d="m131.475 390.288c0-55.607 37.292-102.503 88.231-117.046-10.637-3.037-21.869-4.665-33.481-4.665-67.219 0-121.712 54.492-121.712 121.711 0 67.22 54.492 121.712 121.712 121.712 11.612 0 22.844-1.628 33.481-4.665-50.938-14.543-88.231-61.439-88.231-117.047z" fill="#ffc365"/><circle cx="186.225" cy="390.289" fill="#ffc365" r="93.485"/><path d="m174.402 297.545c-46.048 5.812-81.662 45.118-81.662 92.744s35.614 86.932 81.662 92.744c-26.255-22.325-42.927-55.58-42.927-92.744s16.672-70.42 42.927-92.744z" fill="#ffb640"/><path d="m186.226 289.077c-55.783 0-101.212 45.402-101.212 101.212 0 55.743 45.356 101.211 101.212 101.211 55.743 0 101.211-45.355 101.211-101.211 0-55.746-45.358-101.212-101.211-101.212zm-85.04 90.232c1.981-15.438 8.076-29.604 17.157-41.357 1.066-1.38 3.101-1.518 4.335-.285l41.026 41.026c1.428 1.428.417 3.869-1.603 3.869h-58.051c-1.737 0-3.085-1.529-2.864-3.253zm17.157 63.316c-9.081-11.753-15.176-25.919-17.157-41.357-.221-1.724 1.127-3.253 2.865-3.253h58.051c2.019 0 3.03 2.441 1.603 3.869l-41.026 41.026c-1.234 1.233-3.269 1.095-4.336-.285zm60.156 29.838c0 1.738-1.529 3.086-3.253 2.865-15.438-1.981-29.604-8.076-41.357-17.157-1.38-1.066-1.518-3.101-.285-4.335l41.026-41.026c1.428-1.428 3.869-.417 3.869 1.602zm0-106.298c0 2.019-2.441 3.03-3.869 1.602l-41.026-41.026c-1.233-1.233-1.095-3.268.285-4.335 11.753-9.082 25.919-15.176 41.357-17.158 1.724-.221 3.253 1.127 3.253 2.865zm75.609-28.212c9.081 11.753 15.176 25.919 17.157 41.357.221 1.724-1.127 3.253-2.865 3.253h-58.05c-2.019 0-3.03-2.441-1.603-3.869l41.026-41.026c1.233-1.234 3.269-1.095 4.335.285zm-60.156-29.839c0-1.738 1.529-3.086 3.253-2.865 15.438 1.981 29.603 8.076 41.357 17.157 1.38 1.066 1.518 3.101.285 4.335l-41.026 41.026c-1.428 1.428-3.869.417-3.869-1.603zm44.609 150.057c-11.753 9.081-25.918 15.176-41.356 17.157-1.724.221-3.253-1.127-3.253-2.865v-58.05c0-2.019 2.441-3.03 3.869-1.602l41.026 41.025c1.233 1.233 1.095 3.268-.286 4.335zm32.704-56.903c-1.981 15.438-8.076 29.603-17.157 41.356-1.066 1.38-3.101 1.518-4.335.285l-41.026-41.026c-1.428-1.428-.417-3.869 1.603-3.869h58.05c1.738.001 3.086 1.53 2.865 3.254z" fill="#ffb640"/><path d="m85.014 390.289c0 55.531 45.012 100.859 100.575 101.203-7.885-5.277-15.113-11.45-21.55-18.375-11.092-2.971-21.304-8.112-30.149-14.947-1.38-1.066-1.518-3.101-.285-4.335l10.171-10.171c-2.445-5.003-4.537-10.207-6.287-15.566l-14.81 14.81c-1.233 1.233-3.268 1.095-4.335-.285-9.081-11.753-15.176-25.919-17.157-41.357-.221-1.724 1.127-3.253 2.865-3.253h27.692c-.16-2.557-.268-5.129-.268-7.727s.108-5.169.268-7.726h-27.692c-1.738 0-3.086-1.529-2.865-3.253 1.981-15.438 8.076-29.604 17.157-41.357 1.066-1.38 3.101-1.518 4.335-.285l14.81 14.81c1.75-5.359 3.842-10.563 6.287-15.566l-10.171-10.171c-1.233-1.233-1.095-3.268.285-4.335 8.845-6.835 19.058-11.976 30.15-14.947 6.437-6.924 13.665-13.098 21.55-18.375-55.492.348-100.576 45.61-100.576 101.208z" fill="#ff9b00"/></g></svg>