<svg height="512pt" viewBox="0 -57 512.00154 512" width="512pt" xmlns="http://www.w3.org/2000/svg"><path d="m293.515625 65.203125c-11.238281 3.132813-22.671875-2.09375-27.957031-11.71875-11.847656-21.820313-44.425782-26.984375-62.371094-9.414063-8.765625 8.375-21.492188 8.503907-30.058594 2.597657-20.078125-13.472657-50.515625-5.078125-59.800781 18.917969-4.101563 10.644531-15.058594 16.539062-26.1875 14.460937-11.308594-2.277344-24.960937 3.679687-31.609375 11.242187l137.363281 137.367188c8.796875.726562 17.746094 1.285156 26.808594 1.675781l123.640625-125.707031c1.277344-25.042969-25.210938-46.402344-49.828125-39.421875zm0 0" fill="#00b04b"/><path d="m271.40625 100.605469c26.265625 26.265625 67.746094 28.035156 96.0625 5.308593 3.328125-2.671874 3.558594-7.671874.539062-10.691406l-91.21875-91.21875c-3.019531-3.019531-8.019531-2.789062-10.691406.539063-22.722656 28.316406-20.953125 69.800781 5.308594 96.0625zm0 0" fill="#ff5368"/><path d="m276.871094 95.144531c-25.105469-25.105469-25.105469-65.953125 0-91.058593-6.308594-6.304688-16.816406-5.152344-21.640625 2.351562-19.871094 30.898438-16.300781 72.617188 10.714843 99.632812 27.011719 27.015626 68.730469 30.585938 99.632813 10.710938 7.5-4.824219 8.652344-15.332031 2.347656-21.640625-25.101562 25.105469-65.953125 25.105469-91.054687.003906zm0 0" fill="#c5324f"/><path d="m307.828125 64.183594c8.046875 8.046875 21.09375 8.046875 29.140625 0l-29.140625-29.136719c-8.046875 8.046875-8.046875 21.089844 0 29.136719zm0 0" fill="#ff7c8b"/><path d="m273.824219 43.824219c-.492188 4.179687-.449219 8.414062.128906 12.582031.589844 4.226562 4.492187 7.175781 8.71875 6.585938 1.730469-.242188 3.246094-1.035157 4.394531-2.183594 1.652344-1.65625 2.539063-4.039063 2.191406-6.535156-.398437-2.859376-.429687-5.765626-.085937-8.636719.5-4.234375-2.53125-8.078125-6.765625-8.578125-4.238281-.5-8.082031 2.527344-8.582031 6.765625zm0 0" fill="#ffcf5d"/><path d="m301.957031 76.132812c-1.128906-.871093-2.214843-1.828124-3.234375-2.84375-1.023437-1.023437-1.988281-2.121093-2.867187-3.261718-2.601563-3.378906-7.453125-4.007813-10.835938-1.402344-3.378906 2.601562-4.007812 7.457031-1.402343 10.835938 1.28125 1.664062 2.6875 3.265624 4.179687 4.753906 1.480469 1.480468 3.066406 2.878906 4.714844 4.152344 3.109375 2.402343 7.472656 2.0625 10.179687-.648438.230469-.230469.453125-.480469.65625-.746094 2.609375-3.378906 1.984375-8.230468-1.390625-10.839844zm0 0" fill="#ffcf5d"/><path d="m188.828125 209.683594c-6.503906-4.480469-8.996094-12.824219-5.773437-20.121094 7.242187-16.476562-3.613282-35.695312-20.132813-38.964844-7.128906-1.316406-13.332031-7.679687-13.523437-16.164062-.1875-17.578125-18.769532-31.144532-35.351563-26.210938-7.339844 2.148438-15.550781-.925781-19.539063-8.039062-8.683593-15.640625-32.246093-18.179688-43.953124-5.152344-5.5625 6.351562-14.167969 7.0625-22.40625 5.25-16.722657-3.800781-33.578126 11.316406-26.484376 27.46875 2.042969 4.765625 5.855469 8.605469 10.089844 11.015625 7.484375 4.285156 13.691406 10.347656 12.671875 18.996094-1.066406 9.257812 2.027344 18.824219 8.632813 25.738281 5.824218 5.894531 10.558594 7.339844 14.246094 8.867188-2.550782-1.46875-4.820313-2.890626-6.804688-4.246094 1.984375 1.355468 4.253906 2.777344 6.804688 4.246094 1.480468.613281 2.796874 1.246093 3.941406 2.179687 8.582031 4.5625 19.960937 9.484375 34.9375 14.3125 32.175781 10.375 71.722656 17.355469 114.507812 20.390625-1.1875-8.027344-5.597656-15.378906-11.863281-19.566406zm0 0" fill="#4fe267"/><path d="m189.867188 84.023438c-39.828126 0-72.113282 32.285156-72.113282 72.113281 0 14.105469 4.0625 27.253906 11.066406 38.367187 33.882813 7.019532 72.574219 11.046875 112.953126 11.664063 12.503906-12.96875 20.207031-30.597657 20.207031-50.03125-.003907-39.828125-32.289063-72.113281-72.113281-72.113281zm0 0" fill="#ff5368"/><path d="m197.59375 197.34375v-82.414062c0-4.269532-3.460938-7.726563-7.726562-7.726563-4.269532 0-7.726563 3.457031-7.726563 7.726563v82.414062c0 2.183594.910156 4.152344 2.367187 5.558594 3.179688.320312 6.382813.617187 9.605469.890625 2.09375-1.378907 3.480469-3.753907 3.480469-6.449219zm0 0" fill="#ff7c8b"/><path d="m210.46875 156.136719c0 11.378906-9.222656 20.601562-20.601562 20.601562-11.378907 0-20.605469-9.222656-20.605469-20.601562 0-11.378907 9.226562-20.605469 20.605469-20.605469 11.378906 0 20.601562 9.226562 20.601562 20.605469zm0 0" fill="#ff7c8b"/><path d="m189.867188 76.296875c-44.023438 0-79.839844 35.816406-79.839844 79.839844 0 13.007812 3.148437 25.289062 8.691406 36.152343 6.839844 1.585938 13.902344 3.042969 21.160156 4.367188-8.996094-11.074219-14.398437-25.175781-14.398437-40.519531 0-35.503907 28.882812-64.386719 64.386719-64.386719 35.5 0 64.386718 28.882812 64.386718 64.386719 0 20.03125-9.199218 37.953125-23.59375 49.773437 7.046875.21875 14.148438.332032 21.296875.339844 11.089844-13.710938 17.75-31.148438 17.75-50.113281-.003906-44.023438-35.820312-79.839844-79.839843-79.839844zm0 0" fill="#c5324f"/><g fill="#ffcf5d"><path d="m159.613281 117.695312c-3.304687 2.605469-6.265625 5.628907-8.804687 8.988282-2.574219 3.402344-1.898438 8.25 1.507812 10.820312 1.394532 1.054688 3.027344 1.5625 4.652344 1.5625 2.335938 0 4.648438-1.058594 6.167969-3.066406 1.742187-2.304688 3.777343-4.382812 6.046875-6.167969 3.347656-2.644531 3.925781-7.503906 1.28125-10.851562-2.644532-3.351563-7.5-3.925781-10.851563-1.285157zm0 0"/><path d="m169.152344 182.417969c-2.269532-1.789063-4.296875-3.867188-6.039063-6.175781-2.566406-3.40625-7.410156-4.085938-10.820312-1.515626-3.40625 2.566407-4.085938 7.410157-1.515625 10.820313 2.53125 3.359375 5.492187 6.390625 8.792968 8.996094 1.417969 1.121093 3.109376 1.664062 4.785157 1.664062 2.285156 0 4.542969-1.007812 6.070312-2.9375 2.644531-3.347656 2.074219-8.207031-1.273437-10.851562zm0 0"/><path d="m156.660156 160.433594c-.183594-1.414063-.273437-2.859375-.273437-4.296875 0-1.449219.09375-2.90625.277343-4.332031.546876-4.234376-2.4375-8.109376-6.671874-8.65625-4.226563-.550782-8.105469 2.4375-8.652344 6.671874-.269532 2.082032-.40625 4.207032-.40625 6.316407 0 2.09375.132812 4.203125.398437 6.265625.5 3.898437 3.824219 6.742187 7.652344 6.742187.328125 0 .660156-.019531.996094-.0625 4.230469-.542969 7.222656-4.417969 6.679687-8.648437zm0 0"/><path d="m210.578125 129.851562c2.269531 1.792969 4.296875 3.867188 6.039063 6.175782 1.515624 2.015625 3.832031 3.074218 6.175781 3.074218 1.617187 0 3.25-.507812 4.644531-1.554687 3.40625-2.570313 4.085938-7.414063 1.515625-10.824219-2.53125-3.359375-5.492187-6.386718-8.796875-8.996094-3.347656-2.644531-8.207031-2.074218-10.851562 1.273438-2.644532 3.347656-2.074219 8.207031 1.273437 10.851562zm0 0"/><path d="m227.414062 174.765625c-3.402343-2.574219-8.246093-1.898437-10.820312 1.507813-1.742188 2.304687-3.773438 4.378906-6.042969 6.167968-3.351562 2.640625-3.925781 7.5-1.285156 10.851563 1.523437 1.933593 3.789063 2.941406 6.074219 2.941406 1.675781 0 3.359375-.542969 4.777344-1.660156 3.304687-2.605469 6.269531-5.628907 8.804687-8.988281 2.574219-3.402344 1.898437-8.246094-1.507813-10.820313zm0 0"/><path d="m238.398438 149.867188c-.542969-4.230469-4.417969-7.21875-8.648438-6.675782-4.230469.542969-7.222656 4.414063-6.679688 8.644532.183594 1.417968.273438 2.863281.273438 4.296874 0 1.449219-.09375 2.90625-.277344 4.335938-.546875 4.230469 2.4375 8.105469 6.671875 8.652344.335938.042968.667969.066406 1 .066406 3.824219 0 7.148438-2.839844 7.652344-6.734375.273437-2.082031.410156-4.207031.410156-6.320313 0-2.089843-.136719-4.199218-.402343-6.265624zm0 0"/></g><path d="m471.582031 64.90625c-11.828125 2.589844-24.183593 1.574219-32.175781-7.5-16.804688-18.605469-50.636719-14.980469-63.109375 7.363281-5.726563 10.160157-17.511719 14.550781-28.054687 11.484375-23.808594-7.050781-50.492188 12.332032-50.757813 37.445313-.277344 12.121093-9.183594 21.210937-19.417969 23.089843-23.722656 4.667969-39.3125 32.128907-28.910156 55.660157 4.628906 10.429687 1.046875 22.34375-8.292969 28.746093-3.679687 2.445313-6.90625 5.652344-9.558593 9.367188 7.988281.269531 16.054687.414062 24.179687.414062 61.363281 0 119.515625-7.855468 163.75-22.121093 5.921875-1.90625 16.613281-6.015625 21.464844-7.925781 5.507812-8.960938 9.785156-2.992188 23.832031-17.140626 9.484375-9.875 13.929688-23.542968 12.398438-36.765624-1.464844-12.355469 7.445312-21.015626 18.195312-27.140626 6.078125-3.441406 11.554688-8.925781 14.484375-15.734374 10.1875-23.074219-14.011719-44.671876-38.027344-39.242188zm0 0" fill="#4fe267"/><path d="m417.316406 192.6875c-2.425781-28.105469-26.0625-50.238281-54.785156-50.238281-30.332031 0-55.003906 24.671875-55.003906 55.003906 0 7.316406 1.445312 14.296875 4.050781 20.6875 31.136719-3.722656 59.832031-9.640625 84.273437-17.523437 8.1875-2.640626 15.292969-5.308594 21.464844-7.929688zm0 0" fill="#c5324f"/><path d="m386.628906 166.546875c0-.070313 0-.144531 0-.214844-.050781-13.101562-10.78125-23.832031-23.882812-23.882812-.070313 0-.144532 0-.214844 0-30.328125 0-55.003906 24.671875-55.003906 55.003906v.214844c.03125 8.132812 4.183594 15.351562 10.460937 19.671875 17.289063-2.261719 33.765625-5.210938 49.117188-8.804688 11.929687-10.097656 19.523437-25.167968 19.523437-41.988281zm0 0" fill="#ff5368"/><path d="m185.746094 19.285156c-6.011719-6.011718-15.84375-6.011718-21.855469 0-6.007813 6.007813-6.007813 15.84375 0 21.851563l21.855469 21.851562c6.007812 6.011719 15.84375 6.011719 21.851562 0 6.007813-6.007812 6.007813-15.839843 0-21.851562zm0 0" fill="#ff7e40"/><path d="m427.835938 97.796875h-30.902344c-8.5 0-15.453125 6.953125-15.453125 15.453125s6.953125 15.453125 15.453125 15.453125h30.902344c8.5 0 15.453124-6.953125 15.453124-15.453125s-6.953124-15.453125-15.453124-15.453125zm0 0" fill="#ff7e40"/><path d="m84.789062 131.574219-21.855468 21.851562c-6.007813 6.007813-6.007813 15.84375 0 21.855469 6.007812 6.007812 15.84375 6.007812 21.855468 0l21.851563-21.855469c6.011719-6.007812 6.011719-15.84375 0-21.851562-6.011719-6.011719-15.84375-6.011719-21.851563 0zm0 0" fill="#ff7e40"/><path d="m472.863281 191.894531h-433.695312c-20.132813 0-34.761719 19.507813-29.230469 39.117188 13.558594 48.066406 51.625 89.6875 103.921875 116.570312h284.316406c52.230469-26.847656 90.265625-68.402343 103.867188-116.390625 5.578125-19.679687-8.972657-39.296875-29.179688-39.296875zm0 0" fill="#e9e3d5"/><path d="m472.457031 222.101562-.273437 1.113282c-11.167969 38.800781-42.4375 73.078125-88.117188 96.558594-28.167968 14.480468-60.796875 27.808593-96.730468 27.808593h-173.480469c0 27.375 23.800781 50.351563 50.824219 50.351563h182.671874c7.621094 0 15.542969-1.761719 22.859376-5.449219 7.183593-2.875 27.964843-17.871094 27.964843-44.902344 52.230469-26.851562 90.265625-68.40625 103.867188-116.394531.273437-.964844.5-1.925781.675781-2.886719 3.605469-19.4375-25.488281-25.382812-30.261719-6.199219zm0 0" fill="#d3cdbf"/></svg>